
<svg width="32" height="32" viewBox="0 0 32 32" fill="none" xmlns="http://www.w3.org/2000/svg">
  <path d="M16 2C8.268 2 2 8.268 2 16C2 23.732 8.268 30 16 30C23.732 30 30 23.732 30 16C30 8.268 23.732 2 16 2ZM16 28C9.373 28 4 22.627 4 16C4 9.373 9.373 4 16 4C22.627 4 28 9.373 28 16C28 22.627 22.627 28 16 28Z" fill="url(#paint0_linear_1_2)"/>
  <path d="M16 8C14.895 8 14 8.895 14 10C14 11.105 14.895 12 16 12C17.105 12 18 11.105 18 10C18 8.895 17.105 8 16 8Z" fill="url(#paint1_linear_1_2)"/>
  <path d="M16 14C15.448 14 15 14.448 15 15V22C15 22.552 15.448 23 16 23C16.552 23 17 22.552 17 22V15C17 14.448 16.552 14 16 14Z" fill="url(#paint2_linear_1_2)"/>
  <defs>
    <linearGradient id="paint0_linear_1_2" x1="2" y1="16" x2="30" y2="16" gradientUnits="userSpaceOnUse">
      <stop stop-color="#0EA5E9"/>
      <stop offset="1" stop-color="#14B8A6"/>
    </linearGradient>
    <linearGradient id="paint1_linear_1_2" x1="14" y1="10" x2="18" y2="10" gradientUnits="userSpaceOnUse">
      <stop stop-color="#0EA5E9"/>
      <stop offset="1" stop-color="#14B8A6"/>
    </linearGradient>
    <linearGradient id="paint2_linear_1_2" x1="15" y1="18.5" x2="17" y2="18.5" gradientUnits="userSpaceOnUse">
      <stop stop-color="#0EA5E9"/>
      <stop offset="1" stop-color="#14B8A6"/>
    </linearGradient>
  </defs>
</svg>
